Coordinates
version=1
nRows=20
nColumns=34
inDegrees=yes

Units are S.I. units (second, meters, Newtons, ...)
If the header above contains a line with 'inDegrees', this indicates whether rotational values are in degrees (yes) or radians (no).

endheader
time	pelvis_tilt	pelvis_list	pelvis_rotation	pelvis_tx	pelvis_ty	pelvis_tz	hip_flexion_r	hip_adduction_r	hip_rotation_r	knee_angle_r	ankle_angle_r	subtalar_angle_r	mtp_angle_r	hip_flexion_l	hip_adduction_l	hip_rotation_l	knee_angle_l	ankle_angle_l	subtalar_angle_l	mtp_angle_l	lumbar_extension	lumbar_bending	lumbar_rotation	arm_flex_r	arm_add_r	arm_rot_r	elbow_flex_r	pro_sup_r	arm_flex_l	arm_add_l	arm_rot_l	elbow_flex_l	pro_sup_l
      5.25000000	     -8.46121355	      4.50644098	    -23.24815097	     -1.02204111	      1.06473103	      0.21298895	     -1.44629871	     -2.69403803	     -5.87306348	      4.19704723	     15.70119213	     -5.93714927	      0.00000000	     26.64389390	     -0.00080991	     -9.19539969	     14.47638713	     -3.04244496	    -11.05956899	      0.00000000	     -0.97983623	      2.26526988	      1.04565150	     -0.87205604	     -9.04502394	     -4.50802108	     24.65552002	     85.23956667	     -4.17967502	    -12.10740045	   -352.02915818	     40.70032207	     99.38848494
      5.26666670	     -8.06650232	      4.45754500	    -23.40714097	     -1.02156771	      1.06302050	      0.21539063	     -2.11248895	     -2.58090917	     -5.87822390	      3.75043685	     16.28218060	     -6.22309818	      0.00000000	     26.16467084	     -0.13356964	     -8.79261895	     14.56329916	     -2.89026862	    -10.91806423	      0.00000000	     -1.62222918	      1.96213421	      1.96761719	     -0.69483714	     -9.44411780	     -9.95891314	     29.45021310	     86.75785031	     -4.28083846	    -12.53878909	   -352.18191468	     43.20827224	     99.65740743
      5.28333330	     -7.72137536	      4.37011546	    -23.58725330	     -1.02747012	      1.05890004	      0.21323193	     -2.59688997	     -2.47627548	     -6.03352449	      3.45906641	     16.62081037	     -6.50912907	      0.00000000	     25.96701726	     -0.30061328	     -8.42626797	     14.75099831	     -2.68704442	    -10.95589201	      0.00000000	     -2.01821648	      1.96080707	      2.77146452	      0.00856568	     -9.81974206	    -15.18780549	     34.03227599	     89.53437627	     -3.45746559	    -12.73206297	   -351.48952268	     43.38176817	    100.16717478
      5.30000000	     -7.55831201	      4.35091839	    -23.70319686	     -1.02639373	      1.05219018	      0.21388937	     -2.61375472	     -2.38483819	     -5.92197313	      3.63994732	     17.51319183	     -6.94132296	      0.00000000	     26.13730822	     -0.44681557	     -8.03146051	     15.22376828	     -2.22001053	    -11.12656804	      0.00000000	     -1.84341125	      1.92692722	      2.71589063	      1.99549118	    -10.76809445	    -15.68665516	     35.26947729	     89.71298683	     -3.18933979	    -12.90301972	   -351.27400050	     43.34194439	    100.23139311
      5.31666670	     -7.33054487	      4.27143355	    -23.65803865	     -1.02843740	      1.05443333	      0.21454204	     -2.64058362	     -2.23589895	     -5.59582914	      3.61535958	     18.35283735	     -7.47155298	      0.00000000	     26.14401159	     -0.55161559	     -7.66392314	     15.54565023	     -1.98524797	    -11.36898278	      0.00000000	     -2.08202285	      2.02618124	      3.73156898	      2.04539238	    -10.57248582	    -21.98657661	     40.66829630	     93.78033767	     -1.82338230	    -13.10580116	   -349.39070100	     43.13934967	    100.83455739
      5.33333330	     -7.16826560	      4.04327590	    -23.38410688	     -1.03495949	      1.05081111	      0.21127804	     -2.64762845	     -1.90563397	     -5.52805320	      3.55216687	     18.77494593	     -7.98893368	      0.00000000	     26.43707850	     -0.69953125	     -7.01429518	     16.15399845	     -1.49320551	    -11.63613894	      0.00000000	     -2.12550294	      2.26184622	      3.15475367	      3.65711078	    -11.43162457	    -21.98308411	     42.95025035	     94.19893692	     -1.31081081	    -13.24422815	   -349.05007839	     43.27326327	    100.89198675
      5.35000000	     -6.96084692	      3.93291822	    -23.19646363	     -1.03691150	      1.05947789	      0.21077970	     -2.48087103	     -1.80391554	     -5.38901035	      3.90657768	     18.98488842	     -8.68860682	      0.00000000	     26.64638955	     -0.74578278	     -6.64161405	     16.57003633	     -1.43800511	    -11.91650763	      0.00000000	     -2.46806397	      2.32145052	      3.84905003	      4.04025869	    -11.74437406	    -24.29443397	     46.68267090	     96.27459612	      0.58499810	    -13.09027530	   -347.32757174	     42.28247630	    100.98817652
      5.36666670	     -6.63830596	      3.79129415	    -22.83136192	     -1.03556821	      1.06320199	      0.21100231	     -2.67574198	     -1.74333427	     -5.33354394	      4.08261898	     19.32302310	     -8.86478076	      0.00000000	     26.49646800	     -0.66970440	     -6.23493795	     16.58823369	     -1.43738756	    -11.71935297	      0.00000000	     -2.70882792	      2.38046911	      3.33606701	      5.53197887	    -12.14859157	    -24.32947964	     47.93612383	     96.37711485	      1.28489890	    -12.82611771	   -347.25418137	     41.89432140	    100.96944627
      5.38333330	     -6.22258253	      3.65377713	    -22.54572458	     -1.04028538	      1.06410798	      0.21084624	     -2.91942965	     -1.74099248	     -5.05954079	      4.36452318	     19.29158133	     -9.18715320	      0.00000000	     26.29153400	     -0.57913653	     -5.87327616	     16.64152725	     -1.43070847	    -11.52279152	      0.00000000	     -3.00988316	      2.41469474	      2.91443784	      6.48440005	    -12.47540994	    -24.19335297	     50.23884154	     96.46908460	      2.04217095	    -12.38658104	   -347.37147370	     41.19570427	    100.89010174
      5.40000000	     -5.86743962	      3.46320567	    -22.25060486	     -1.04422377	      1.06890964	      0.21231408	     -2.94183696	     -1.60337390	     -4.58304925	      4.79273009	     19.30551335	     -9.60100046	      0.00000000	     26.13812622	     -0.61016797	     -5.55568250	     16.61247202	     -1.58057691	    -11.19572241	      0.00000000	     -3.36296770	      2.50041622	      2.90839579	      7.31401110	    -12.67155737	    -24.17794446	     52.17846008	     96.43778574	      3.12529751	    -11.90917930	   -347.56389682	     40.45698869	    100.78053702
      5.41666670	     -5.53206303	      3.34070783	    -21.91867281	     -1.04547573	      1.06828892	      0.21154049	     -3.02856896	     -1.56054383	     -4.19851227	      5.12619444	     19.10328503	     -9.85063205	      0.00000000	     26.04413355	     -0.59734045	     -5.26310146	     16.71797046	     -1.81701780	    -10.83266116	      0.00000000	     -3.54066148	      2.54231230	      2.75070401	      7.69666002	    -12.76708889	    -24.14123454	     54.41583458	     96.26046737	      3.80770216	    -11.41392809	   -347.64111228	     40.05176306	    100.66905337
      5.43333330	     -5.24105497	      3.19452684	    -21.64340521	     -1.04963029	      1.07116469	      0.21259904	     -2.97671674	     -1.45158376	     -3.76966982	      5.54106047	     19.15529148	     -9.86097105	      0.00000000	     25.96357807	     -0.67245452	     -5.03187046	     16.76594590	     -2.24342993	    -10.52680528	      0.00000000	     -3.59563771	      2.59575571	      2.64862600	      8.30334535	    -12.78302548	    -24.02453465	     55.48704080	     96.16343097	      4.34245474	    -11.10457321	   -347.62503570	     40.05430070	    100.63112297
      5.45000000	     -4.84476940	      3.07452702	    -21.23528402	     -1.05239037	      1.07317585	      0.21508531	     -3.27874210	     -1.32346415	     -3.45389792	      5.56285242	     18.95961803	    -10.14800770	      0.00000000	     25.70607054	     -0.64929950	     -4.78796391	     16.76328947	     -2.45412364	    -10.31683545	      0.00000000	     -3.96551017	      2.58229149	      2.41004345	      8.75195641	    -12.42361642	    -23.48650034	     57.56463262	     95.94077110	      4.95227124	    -10.85207530	   -347.61679796	     39.90517951	    100.53679475
      5.46666670	     -4.72884020	      2.96463448	    -20.88338959	     -1.05707367	      1.06152972	      0.21735247	     -3.18572383	     -1.04734228	     -2.90020445	      5.78926284	     18.76348925	    -10.85011452	      0.00000000	     25.94125238	     -0.78128907	     -4.41082478	     17.09822999	     -2.44697988	    -10.17670412	      0.00000000	     -3.93832306	      2.59970893	      2.56070580	      8.45132147	    -12.32292354	    -22.90837042	     60.21687645	     95.42881702	      5.29868497	    -10.84779161	   -347.50913607	     40.83749141	    100.35685576
      5.48333330	     -4.58926776	      2.75860634	    -20.44997474	     -1.05581954	      1.05938016	      0.21812161	     -3.30742980	     -0.71957805	     -2.88582064	      5.99369264	     18.79680584	    -11.48671607	      0.00000000	     26.09179656	     -0.92965102	     -3.93316388	     17.50854386	     -2.27840555	    -10.18261711	      0.00000000	     -3.83217771	      2.78142420	      2.45569120	      8.36821804	    -12.10469115	    -22.63123156	     61.97447908	     94.94640179	      5.36819689	    -10.72491077	   -347.30475387	     41.79783314	    100.22745795
      5.50000000	     -4.47865203	      2.62010060	    -20.07973029	     -1.05770325	      1.06107433	      0.22013606	     -3.37878066	     -0.43190276	     -2.74391888	      6.19212061	     18.76858502	    -12.26270017	      0.00000000	     26.21930651	     -1.04794676	     -3.50555167	     17.83652415	     -2.27217114	    -10.29654734	      0.00000000	     -3.75394954	      2.84694734	      2.50001199	      7.89593696	    -11.72894131	    -22.04516052	     63.83158703	     94.32857857	      5.30691725	    -10.72805482	   -347.10565374	     43.13652071	    100.05300283
      5.51666670	     -4.27728375	      2.46956796	    -19.75479948	     -1.06337457	      1.06445971	      0.22189218	     -3.63975253	     -0.12862671	     -2.57439080	      6.16543047	     18.57839066	    -12.87904936	      0.00000000	     26.29785655	     -1.18460569	     -3.17735499	     18.15493890	     -2.35828188	    -10.39708030	      0.00000000	     -3.81297774	      2.81149968	      2.64834364	      7.64162178	    -11.23447231	    -21.23703693	     65.23423214	     93.48535134	      5.44980294	    -10.84927607	   -347.01577445	     44.44072502	     99.80064877
      5.53333330	     -4.16210146	      2.31168499	    -19.39598953	     -1.06552860	      1.06435599	      0.22418009	     -3.81033429	      0.27247056	     -2.49334991	      6.07634162	     18.42497390	    -13.53077188	      0.00000000	     26.54108039	     -1.36985685	     -2.84981098	     18.57539641	     -2.40152423	    -10.41345550	      0.00000000	     -3.76224423	      2.81435271	      2.72275204	      7.36264969	    -10.65732386	    -20.51374152	     66.11637193	     92.42104395	      5.39356431	    -10.91283711	   -347.08685774	     45.73161546	     99.47287174
      5.55000000	     -3.89150922	      2.13682861	    -19.03713910	     -1.06620532	      1.06404129	      0.22654465	     -4.31544939	      0.65082763	     -2.40657765	      5.76130751	     18.44911783	    -13.91726465	      0.00000000	     26.49658262	     -1.51392604	     -2.52034731	     18.78649319	     -2.53133117	    -10.36073972	      0.00000000	     -3.86503337	      2.79417676	      2.72226849	      7.14926547	    -10.11702203	    -19.34763738	     66.77639757	     90.72913422	      5.02603701	    -10.91450947	   -347.51093882	     47.44083525	     98.93100825
      5.56666670	     -3.73056416	      1.99053180	    -18.75920971	     -1.07239544	      1.06549787	      0.22642294	     -4.55136442	      1.00931268	     -2.48360848	      5.65157534	     18.40248612	    -13.94951140	      0.00000000	     26.62671247	     -1.72737837	     -2.36847331	     18.99489423	     -2.64144059	    -10.26629131	      0.00000000	     -3.72861469	      2.77856558	      3.01786048	      6.96512828	     -9.35750062	    -18.99561346	     66.68544359	     90.71149053	      5.22224902	    -10.67046605	   -347.49662679	     47.63291599	     98.91825446
